<?xml version="1.0" encoding="UTF-8"?>
<svg width="24px" height="24px" viewBox="0 0 24 24" version="1.1" xmlns="http://www.w3.org/2000/svg">
    <path d="M19.2,5.8c0.2,1.2,0,2.4-0.6,3.5c-0.6,1.1-1.6,1.9-2.7,2.3c-1.1,0.4-2.4,0.4-3.5,0.1c-1.2-0.3-2.3-1-3.1-1.9 c-0.8-0.9-1.2-2.1-1.2-3.3c0-1.2,0.4-2.4,1.2-3.3c0.8-0.9,1.9-1.6,3.1-1.9c1.2-0.3,2.4-0.3,3.5,0.1c1.1,0.4,2.1,1.2,2.7,2.3 C19.2,4.3,19.4,5,19.2,5.8z" fill="#00A3FF"/>
    <path d="M16.5,9.9c0.2,1.2,0,2.4-0.6,3.5c-0.6,1.1-1.6,1.9-2.7,2.3c-1.1,0.4-2.4,0.4-3.5,0.1c-1.2-0.3-2.3-1-3.1-1.9 c-0.8-0.9-1.2-2.1-1.2-3.3c0-1.2,0.4-2.4,1.2-3.3c0.8-0.9,1.9-1.6,3.1-1.9c1.2-0.3,2.4-0.3,3.5,0.1c1.1,0.4,2.1,1.2,2.7,2.3 C16.5,8.4,16.7,9.1,16.5,9.9z" fill="#0066FF"/>
</svg>
